<?xml version="1.0" encoding="utf-8"?>
<!-- Generator: Adobe Illustrator 26.0.1, SVG Export Plug-In . SVG Version: 6.00 Build 0)  -->
<svg version="1.1" id="Слой_1" xmlns="http://www.w3.org/2000/svg" xmlns:xlink="http://www.w3.org/1999/xlink" x="0px" y="0px"
	 viewBox="0 0 2000 2000" style="enable-background:new 0 0 2000 2000;" xml:space="preserve">
<style type="text/css">
	.st0{fill:#FFFFFF;}
	.st1{fill:#008CF7;}
	.st2{fill:#FF5D00;}
</style>
<path class="st0" d="M1379.9,1H620.1C278.2,1,1,278.2,1,620.1v759.7C1,1721.8,278.2,1999,620.1,1999h759.7
	c341.9,0,619.1-277.2,619.1-619.1V620.1C1999,278.2,1721.8,1,1379.9,1z M1609.4,1231.7c0,208.6-169.1,377.7-377.7,377.7H768.3
	c-208.6,0-377.7-169.1-377.7-377.7V768.3c0-208.6,169.1-377.7,377.7-377.7h463.4c208.6,0,377.7,169.1,377.7,377.7V1231.7z"/>
<path class="st1" d="M2,619.8v648l157-132l692.7-33.1L525.2,524.2l616.3,37.5L736.2,0H621.8C279.5,0,2,277.5,2,619.8z"/>
<g>
	<path class="st2" d="M1201,2000h179.3c56.1,0,110.4-7.4,162.1-21.4l-222.6-191.9L1201,2000z"/>
	<path class="st2" d="M1481.7,857l414,552.6l-414-115.3l62.9,683.6c262.5-72,455.3-312.4,455.3-597.7V895.5L1481.7,857z"/>
</g>
<g>
	<path class="st0" d="M1055.1,709c45.5,0,86.1,9.1,122,27.2c35.9,18.1,64.1,45.8,84.7,83.1c20.6,37.3,30.9,85.1,30.9,143.3v328.2
		h-166.2V988.2c0-46.2-10.1-80.3-30.4-102.3c-20.2-22-48.9-33-85.8-33c-26.3,0-49.9,5.7-70.9,17.1c-21,11.4-37.3,28.1-49,50.1
		c-11.7,22-17.6,51.1-17.6,87.4v283.5H706.7V717.5h158.8v158.8l-29.8-48c20.6-38.4,50.1-67.8,88.4-88.4
		C962.4,719.3,1006.1,709,1055.1,709z"/>
</g>
</svg>
