<?xml version="1.0" encoding="utf-8"?>
<!-- Generator: Adobe Illustrator 26.0.1, SVG Export Plug-In . SVG Version: 6.00 Build 0)  -->
<svg version="1.1" id="Слой_1" xmlns="http://www.w3.org/2000/svg" xmlns:xlink="http://www.w3.org/1999/xlink" x="0px" y="0px"
	 viewBox="0 0 2000 839" style="enable-background:new 0 0 2000 839;" xml:space="preserve">
<style type="text/css">
	.st0{fill:#FFFFFF;}
	.st1{fill:#008CF7;}
	.st2{fill:#FF5D00;}
</style>
<path class="st0" d="M523.7,418.9c-4.9-2.9-10.2-5.3-16.1-7.2c-5.8-1.9-11.7-3.5-17.7-4.8c-6-1.3-11.4-2.6-16.3-3.9
	c-4.9-1.3-8.8-3.1-11.8-5.4c-3-2.3-4.5-5.4-4.5-9.2c0-3,0.9-5.7,2.7-8.1c1.8-2.4,4.7-4.4,8.6-5.8c3.9-1.4,9.2-2.1,15.7-2.1
	c6.2,0,12.7,0.9,19.5,2.7c6.8,1.8,13.4,4.6,19.7,8.2l10.4-24.8c-6.5-4.1-14.1-7.2-22.9-9.4c-8.7-2.2-17.6-3.3-26.5-3.3
	c-13.4,0-24.6,2-33.4,6c-8.9,4-15.5,9.4-19.8,16.1c-4.3,6.7-6.5,14.1-6.5,22.3c0,7.5,1.5,13.7,4.4,18.6c2.9,5,6.8,8.9,11.8,12
	c4.9,3.1,10.4,5.5,16.3,7.3c5.9,1.8,11.8,3.4,17.6,4.7c5.8,1.3,11.2,2.6,16.2,4.1c4.9,1.4,8.9,3.3,11.9,5.5c3,2.2,4.5,5.3,4.5,9
	c0,3-0.9,5.6-2.8,7.8c-1.9,2.2-4.8,4-8.8,5.4c-4,1.4-9.3,2-15.8,2c-8.5,0-17-1.4-25.4-4.2c-8.4-2.8-15.6-6.3-21.6-10.7l-11.2,24.8
	c6.4,4.9,14.8,8.8,25.3,11.9c10.5,3.1,21.5,4.6,32.8,4.6c13.4,0,24.6-2,33.6-6.1s15.6-9.4,20-16.1c4.4-6.6,6.6-14,6.6-22
	c0-7.3-1.5-13.5-4.6-18.4C532.5,425.7,528.6,421.8,523.7,418.9z"/>
<path class="st0" d="M657.3,354.6c-9.2-4.1-20.2-6.2-32.9-6.2h-61.6v142.3h33.1v-39.2h28.5c12.7,0,23.7-2.1,32.9-6.3
	c9.2-4.2,16.3-10.1,21.4-17.8c5-7.7,7.5-16.8,7.5-27.6c0-10.6-2.5-19.7-7.5-27.5C673.6,364.7,666.5,358.8,657.3,354.6z M645.3,418.2
	c-5.2,4.3-12.7,6.5-22.8,6.5h-26.6v-49.4h26.6c10,0,17.6,2.1,22.8,6.4c5.2,4.3,7.7,10.3,7.7,18.2C653,407.7,650.4,413.8,645.3,418.2
	z"/>
<polygon class="st0" points="742.3,431.4 808.4,431.4 808.4,405.6 742.3,405.6 742.3,374.9 817.1,374.9 817.1,348.4 709.5,348.4 
	709.5,490.8 819.7,490.8 819.7,464.3 742.3,464.3 "/>
<polygon class="st0" points="926.5,436.8 873.2,348.4 846,348.4 846,490.8 876.7,490.8 876.7,406.8 918.6,475.5 933.2,475.5 
	975.1,405.9 975.5,490.8 1006.2,490.8 1006.2,348.4 978.8,348.4 "/>
<polygon class="st0" points="1198.7,375.3 1244.2,375.3 1244.2,490.8 1277.2,490.8 1277.2,375.3 1322.7,375.3 1322.7,348.4 
	1198.7,348.4 "/>
<polygon class="st0" points="1373.1,431.4 1439.2,431.4 1439.2,405.6 1373.1,405.6 1373.1,374.9 1448,374.9 1448,348.4 
	1340.4,348.4 1340.4,490.8 1450.6,490.8 1450.6,464.3 1373.1,464.3 "/>
<path class="st0" d="M1579.4,430.7c-3.1-4.9-7-8.9-11.9-11.8c-4.9-2.9-10.2-5.3-16.1-7.2c-5.8-1.9-11.7-3.5-17.7-4.8
	c-6-1.3-11.4-2.6-16.3-3.9c-4.9-1.3-8.8-3.1-11.8-5.4c-3-2.3-4.5-5.4-4.5-9.2c0-3,0.9-5.7,2.7-8.1s4.7-4.4,8.6-5.8
	c3.9-1.4,9.2-2.1,15.7-2.1c6.2,0,12.7,0.9,19.5,2.7c6.8,1.8,13.4,4.6,19.7,8.2l10.4-24.8c-6.5-4.1-14.1-7.2-22.9-9.4
	c-8.7-2.2-17.6-3.3-26.5-3.3c-13.4,0-24.6,2-33.4,6c-8.9,4-15.5,9.4-19.8,16.1c-4.3,6.7-6.5,14.1-6.5,22.3c0,7.5,1.5,13.7,4.4,18.6
	c2.9,5,6.8,8.9,11.8,12c4.9,3.1,10.4,5.5,16.3,7.3c5.9,1.8,11.8,3.4,17.6,4.7c5.8,1.3,11.2,2.6,16.2,4.1c4.9,1.4,8.9,3.3,11.9,5.5
	c3,2.2,4.5,5.3,4.5,9c0,3-1,5.6-2.8,7.8c-1.9,2.2-4.8,4-8.8,5.4c-4,1.4-9.3,2-15.8,2c-8.5,0-17-1.4-25.4-4.2
	c-8.4-2.8-15.6-6.3-21.6-10.7l-11.2,24.8c6.4,4.9,14.8,8.8,25.3,11.9c10.5,3.1,21.5,4.6,32.8,4.6c13.4,0,24.6-2,33.6-6.1
	c8.9-4.1,15.6-9.4,20-16.1c4.4-6.6,6.6-14,6.6-22C1584,441.8,1582.5,435.6,1579.4,430.7z"/>
<g>
	<path class="st0" d="M1130.3,346.1h-55.8c-25.1,0-45.5,20.4-45.5,45.5v55.8c0,25.1,20.4,45.5,45.5,45.5h55.8
		c25.1,0,45.5-20.4,45.5-45.5v-55.8C1175.8,366.4,1155.5,346.1,1130.3,346.1z M1147.2,436.5c0,15.3-12.4,27.8-27.8,27.8h-34.1
		c-15.3,0-27.8-12.4-27.8-27.8v-34.1c0-15.3,12.4-27.8,27.8-27.8h34.1c15.3,0,27.8,12.4,27.8,27.8V436.5L1147.2,436.5z"/>
	<path class="st1" d="M1029,391.6v47.6l11.5-9.7l50.9-2.4l-24-42.5l45.3,2.8L1083,346h-8.4C1049.4,346,1029,366.4,1029,391.6z"/>
	<g>
		<path class="st2" d="M1117.2,493h13.2c4.1,0,8.1-0.5,11.9-1.6l-16.4-14.1L1117.2,493z"/>
		<path class="st2" d="M1137.8,409l30.4,40.6l-30.4-8.5l4.6,50.2c19.3-5.3,33.5-23,33.5-43.9v-35.6L1137.8,409z"/>
	</g>
</g>
</svg>
