<?xml version="1.0" encoding="utf-8"?>
<!-- Generator: Adobe Illustrator 26.0.1, SVG Export Plug-In . SVG Version: 6.00 Build 0)  -->
<svg version="1.1" id="Слой_1" xmlns="http://www.w3.org/2000/svg" xmlns:xlink="http://www.w3.org/1999/xlink" x="0px" y="0px"
	 viewBox="0 0 2000 2000" style="enable-background:new 0 0 2000 2000;" xml:space="preserve">
<style type="text/css">
	.st0{fill:#FFFFFF;}
</style>
<g>
	<path class="st0" d="M456.4,1068.2c-33.4,0-65.5-4.5-96.3-13.4c-30.8-8.9-55.6-20.6-74.2-34.9l32.8-72.7
		c17.5,12.7,38.6,23.2,63.2,31.3c24.6,8.2,49.5,12.2,74.5,12.2c19.1,0,34.5-2,46.2-6c11.7-4,20.4-9.2,25.9-15.8
		c5.6-6.6,8.3-14.2,8.3-23c0-11.1-4.4-20-13.1-26.5c-8.7-6.6-20.4-11.9-34.9-16.1c-14.5-4.2-30.3-8.1-47.4-11.9
		c-17.1-3.8-34.3-8.3-51.6-13.7c-17.3-5.4-33.2-12.5-47.7-21.5c-14.5-8.9-26-20.7-34.6-35.2c-8.6-14.5-12.8-32.7-12.8-54.6
		c0-23.8,6.4-45.6,19.1-65.3c12.7-19.7,32.1-35.4,58.1-47.1c26-11.7,58.7-17.6,98.1-17.6c26.2,0,52.2,3.2,77.8,9.5
		c25.6,6.4,48,15.5,67.1,27.4l-30.4,72.7c-18.7-10.7-38-18.8-57.8-24.1c-19.9-5.4-39-8-57.2-8c-19.1,0-34.4,2.1-45.9,6.3
		c-11.5,4.2-20,9.8-25.3,17c-5.4,7.2-8,15.1-8,23.8c0,11.1,4.4,20.1,13.1,26.8c8.7,6.8,20.3,12,34.6,15.8
		c14.3,3.8,30.2,7.6,47.7,11.3c17.5,3.8,34.8,8.4,51.9,14c17.1,5.6,32.8,12.6,47.1,21.2c14.3,8.6,25.9,20.1,34.9,34.6
		c8.9,14.5,13.4,32.5,13.4,54c0,23.5-6.5,44.9-19.4,64.4c-12.9,19.5-32.5,35.2-58.7,47.1S495.8,1068.2,456.4,1068.2z"/>
	<path class="st0" d="M699.1,1061.1V643.7h180.7c37.4,0,69.6,6.1,96.6,18.2c27,12.1,47.9,29.5,62.6,52.2
		c14.7,22.7,22.1,49.5,22.1,80.5c0,31.4-7.4,58.3-22.1,80.8c-14.7,22.5-35.6,39.9-62.6,52.2c-27,12.3-59.2,18.5-96.6,18.5H752.1
		l44.1-43.5v158.6H699.1z M796.3,913.2l-44.1-45.9h122.2c29.4,0,51.7-6.4,66.8-19.1c15.1-12.7,22.7-30.6,22.7-53.7
		c0-23-7.6-40.8-22.7-53.4c-15.1-12.5-37.4-18.8-66.8-18.8H752.1l44.1-45.9V913.2z"/>
</g>
<g>
	<path class="st0" d="M394.1,1303.7c-20.9,0-39.2-4.1-54.9-12.3c-15.7-8.2-27.9-19.4-36.5-33.6c-8.6-14.2-13-30.4-13-48.6
		c0-18.2,4.1-34.5,12.5-48.8c8.3-14.3,19.9-25.5,34.8-33.6c14.9-8.1,31.7-12.1,50.3-12.1c18,0,34.2,3.9,48.6,11.6
		c14.4,7.7,25.9,18.6,34.3,32.7c8.4,14.1,12.6,31,12.6,50.8c0,2-0.1,4.4-0.3,7c-0.2,2.6-0.5,5.1-0.7,7.3H332.7v-31h121.1l-20.8,9.2
		c0.2-9.6-1.6-17.8-5.5-24.9c-3.9-7-9.2-12.6-16-16.5c-6.8-4-14.8-6-23.9-6c-9.1,0-17.1,2-24,6c-6.9,4-12.3,9.6-16.2,16.7
		c-3.9,7.2-5.8,15.6-5.8,25.4v8.2c0,10.2,2.3,19.1,6.8,26.6c4.5,7.5,10.8,13.2,18.8,17.2c8,4,17.5,6,28.7,6c9.6,0,18-1.5,25.4-4.4
		c7.4-3,14.2-7.4,20.3-13.3l28.3,30.7c-8.4,9.6-19,16.9-31.7,22C425.4,1301.1,410.7,1303.7,394.1,1303.7z"/>
	<path class="st0" d="M753.3,1114.7c14.6,0,27.5,2.9,38.7,8.7s20.1,14.7,26.4,26.6c6.4,11.9,9.6,27.2,9.6,45.9v105.1h-53.2v-96.9
		c0-14.8-3-25.7-9-32.7c-6-7-14.5-10.6-25.4-10.6c-8,0-15,1.8-21.1,5.3c-6.1,3.5-10.9,8.8-14.2,15.7c-3.3,6.9-4.9,16-4.9,27.1v92.1
		h-53.2v-96.9c0-14.8-3-25.7-9-32.7c-6-7-14.7-10.6-26.1-10.6c-7.7,0-14.7,1.8-20.8,5.3c-6.1,3.5-10.9,8.8-14.3,15.7
		c-3.4,6.9-5.1,16-5.1,27.1v92.1h-53.2v-183.5h50.8v49.8l-9.6-14.3c6.1-12.5,15.1-22,26.9-28.5c11.8-6.5,25.1-9.7,39.9-9.7
		c16.8,0,31.6,4.3,44.3,12.8c12.7,8.5,21.1,21.5,25.2,39.1l-18.8-5.1c6.1-14.1,15.9-25.4,29.3-33.9
		C720,1119,735.6,1114.7,753.3,1114.7z"/>
	<path class="st0" d="M964.5,1303.7c-19.3,0-36.6-4.1-51.7-12.3c-15.1-8.2-27-19.4-35.6-33.6c-8.6-14.2-13-30.4-13-48.6
		c0-18.4,4.3-34.7,13-48.9c8.6-14.2,20.5-25.4,35.6-33.4c15.1-8.1,32.3-12.1,51.7-12.1c19.6,0,37,4,52.2,12.1
		c15.2,8.1,27.2,19.2,35.8,33.4c8.6,14.2,13,30.5,13,48.9c0,18.4-4.3,34.7-13,48.8c-8.6,14.1-20.6,25.2-35.8,33.4
		C1001.4,1299.6,984,1303.7,964.5,1303.7z M964.5,1260c9.1,0,17.1-2,24-6c6.9-4,12.5-9.8,16.7-17.6c4.2-7.7,6.3-16.8,6.3-27.3
		c0-10.7-2.1-19.8-6.3-27.3c-4.2-7.5-9.8-13.2-16.7-17.2c-6.9-4-14.8-6-23.7-6c-8.9,0-16.8,2-23.9,6c-7.1,4-12.7,9.7-16.9,17.2
		c-4.2,7.5-6.3,16.6-6.3,27.3c0,10.5,2.1,19.6,6.3,27.3c4.2,7.7,9.8,13.6,16.9,17.6C948,1258,955.8,1260,964.5,1260z"/>
	<path class="st0" d="M1079.1,1162.4v-40.9h127.2v40.9H1079.1z M1175.9,1303.7c-21.6,0-38.4-5.5-50.5-16.5
		c-12.1-11-18.1-27.5-18.1-49.3v-161h53.6v160c0,7.7,2,13.8,6,18.1c4,4.3,9.4,6.5,16.2,6.5c8.6,0,15.9-2.3,21.8-6.8l14,37.5
		c-5.2,3.9-11.7,6.8-19.3,8.7C1192,1302.7,1184.1,1303.7,1175.9,1303.7z"/>
	<path class="st0" d="M1275.9,1091.8c-10,0-18.1-2.8-24.2-8.5c-6.1-5.7-9.2-12.7-9.2-21.1c0-8.4,3.1-15.5,9.2-21.1
		c6.1-5.7,14.2-8.5,24.2-8.5c9.8,0,17.8,2.7,24,8c6.3,5.3,9.4,12.2,9.4,20.6c0,8.9-3.1,16.2-9.2,22
		C1294,1088.9,1285.9,1091.8,1275.9,1091.8z M1249.3,1300.9v-183.5h53.2v183.5H1249.3z"/>
	<path class="st0" d="M1443,1303.7c-20.9,0-39.2-4.1-54.9-12.3s-27.9-19.4-36.5-33.6c-8.6-14.2-13-30.4-13-48.6
		c0-18.2,4.1-34.5,12.5-48.8c8.3-14.3,19.9-25.5,34.8-33.6c14.9-8.1,31.7-12.1,50.3-12.1c18,0,34.2,3.9,48.6,11.6
		c14.4,7.7,25.9,18.6,34.3,32.7c8.4,14.1,12.6,31,12.6,50.8c0,2-0.1,4.4-0.3,7c-0.2,2.6-0.5,5.1-0.7,7.3h-149.1v-31h121.1l-20.8,9.2
		c0.2-9.6-1.6-17.8-5.5-24.9c-3.9-7-9.2-12.6-16-16.5c-6.8-4-14.8-6-23.9-6c-9.1,0-17.1,2-24,6c-6.9,4-12.3,9.6-16.2,16.7
		c-3.9,7.2-5.8,15.6-5.8,25.4v8.2c0,10.2,2.3,19.1,6.8,26.6c4.5,7.5,10.8,13.2,18.8,17.2c8,4,17.5,6,28.7,6c9.6,0,18-1.5,25.4-4.4
		c7.4-3,14.2-7.4,20.3-13.3l28.3,30.7c-8.4,9.6-19,16.9-31.7,22C1474.3,1301.1,1459.6,1303.7,1443,1303.7z"/>
	<path class="st0" d="M1628.9,1303.7c-15.7,0-30.7-1.9-45-5.6s-25.8-8.5-34.5-14.2l17.4-37.9c8.6,5,18.7,9.2,30.2,12.5
		c11.5,3.3,22.8,4.9,33.9,4.9c12.3,0,21-1.5,26.1-4.4c5.1-3,7.7-7,7.7-12.3c0-4.3-2-7.6-6-9.7c-4-2.2-9.2-3.8-15.7-4.9
		c-6.5-1.1-13.7-2.3-21.7-3.4c-8-1.1-15.9-2.7-23.7-4.8c-7.8-2-15.1-4.9-21.8-8.7c-6.7-3.8-12.1-8.9-16-15.5c-4-6.6-6-15.1-6-25.6
		c0-11.6,3.4-21.9,10.2-30.9c6.8-9,16.5-16,29-21c12.5-5,27.6-7.5,45.4-7.5c12.7,0,25.5,1.4,38.4,4.3c12.8,2.8,23.7,6.8,32.6,11.8
		l-18.1,37.9c-8.6-5-17.5-8.5-26.4-10.6c-9-2-17.6-3.1-25.8-3.1c-12.3,0-21.1,1.6-26.6,4.8c-5.5,3.2-8.2,7.3-8.2,12.3
		c0,4.6,2,8,6.1,10.4c4.1,2.4,9.4,4.2,16,5.3c6.6,1.1,13.9,2.3,21.8,3.4c8,1.1,15.8,2.7,23.5,4.8c7.7,2,14.9,4.9,21.7,8.7
		c6.7,3.8,12,8.9,16,15.5c4,6.6,6,15.1,6,25.6c0,11.1-3.4,21.1-10.2,29.8c-6.8,8.8-16.7,15.6-29.5,20.6
		C1663,1301.2,1647.3,1303.7,1628.9,1303.7z"/>
</g>
</svg>
